<svg width="105" height="16" viewBox="0 0 105 16" fill="none" xmlns="http://www.w3.org/2000/svg">
<path d="M16.539 6.09701C16.5218 6.0443 16.4902 5.99744 16.4478 5.96174C16.4054 5.92604 16.3539 5.90293 16.299 5.89501L10.939 5.11601L8.54198 0.260011C8.51745 0.210713 8.47965 0.169235 8.43284 0.140241C8.38602 0.111247 8.33205 0.0958862 8.27699 0.0958862C8.22192 0.0958862 8.16794 0.111247 8.12113 0.140241C8.07432 0.169235 8.03652 0.210713 8.01198 0.260011L5.61298 5.11701L0.252985 5.89601C0.198434 5.90414 0.147224 5.9273 0.105092 5.96289C0.0629609 5.99848 0.0315721 6.0451 0.0144429 6.09753C-0.00268629 6.14995 -0.00487919 6.20611 0.00810988 6.25971C0.021099 6.31332 0.0487569 6.36224 0.0879849 6.40101L3.96798 10.181L3.05098 15.521C3.04198 15.5754 3.04831 15.6313 3.06926 15.6823C3.0902 15.7333 3.12494 15.7775 3.16958 15.8099C3.21422 15.8423 3.267 15.8616 3.322 15.8657C3.377 15.8698 3.43205 15.8584 3.48098 15.833L8.27598 13.313L13.07 15.833C13.119 15.8589 13.1742 15.8706 13.2295 15.8667C13.2848 15.8627 13.3379 15.8433 13.3827 15.8107C13.4275 15.7781 13.4622 15.7336 13.483 15.6822C13.5037 15.6308 13.5096 15.5746 13.5 15.52L12.584 10.182L16.464 6.40001C16.544 6.32001 16.574 6.20401 16.539 6.09701Z" fill="#EF9546"/>
<path d="M38.5392 6.09701C38.5221 6.0443 38.4905 5.99744 38.4481 5.96174C38.4057 5.92604 38.3541 5.90293 38.2992 5.89501L32.9392 5.11601L30.5422 0.260011C30.5177 0.210713 30.4799 0.169235 30.4331 0.140241C30.3863 0.111247 30.3323 0.0958862 30.2772 0.0958862C30.2222 0.0958862 30.1682 0.111247 30.1214 0.140241C30.0746 0.169235 30.0368 0.210713 30.0122 0.260011L27.6132 5.11701L22.2532 5.89601C22.1987 5.90414 22.1475 5.9273 22.1053 5.96289C22.0632 5.99848 22.0318 6.0451 22.0147 6.09753C21.9976 6.14995 21.9954 6.20611 22.0084 6.25971C22.0213 6.31332 22.049 6.36224 22.0882 6.40101L25.9682 10.181L25.0512 15.521C25.0422 15.5754 25.0486 15.6313 25.0695 15.6823C25.0904 15.7333 25.1252 15.7775 25.1698 15.8099C25.2145 15.8423 25.2672 15.8616 25.3222 15.8657C25.3772 15.8698 25.4323 15.8584 25.4812 15.833L30.2762 13.313L35.0702 15.833C35.1192 15.8589 35.1745 15.8706 35.2298 15.8667C35.2851 15.8627 35.3381 15.8433 35.3829 15.8107C35.4277 15.7781 35.4625 15.7336 35.4832 15.6822C35.504 15.6308 35.5099 15.5746 35.5002 15.52L34.5842 10.182L38.4642 6.40001C38.5442 6.32001 38.5742 6.20401 38.5392 6.09701Z" fill="#EF9546"/>
<path d="M60.5392 6.00113C60.5221 5.94841 60.4905 5.90155 60.4481 5.86585C60.4057 5.83016 60.3541 5.80704 60.2992 5.79913L54.9392 5.02013L52.5422 0.164125C52.5177 0.114826 52.4799 0.0733484 52.4331 0.0443544C52.3863 0.0153604 52.3323 0 52.2772 0C52.2222 0 52.1682 0.0153604 52.1214 0.0443544C52.0746 0.0733484 52.0368 0.114826 52.0122 0.164125L49.6132 5.02113L44.2532 5.80013C44.1987 5.80825 44.1475 5.83141 44.1053 5.867C44.0632 5.9026 44.0318 5.94922 44.0147 6.00164C43.9976 6.05407 43.9954 6.11023 44.0084 6.16383C44.0213 6.21743 44.049 6.26636 44.0882 6.30513L47.9682 10.0851L47.0512 15.4251C47.0422 15.4795 47.0486 15.5354 47.0695 15.5864C47.0904 15.6374 47.1252 15.6816 47.1698 15.714C47.2145 15.7464 47.2672 15.7657 47.3222 15.7698C47.3772 15.7739 47.4323 15.7626 47.4812 15.7371L52.2762 13.2171L57.0702 15.7371C57.1192 15.7631 57.1745 15.7747 57.2298 15.7708C57.2851 15.7668 57.3381 15.7475 57.3829 15.7148C57.4277 15.6822 57.4625 15.6377 57.4832 15.5863C57.504 15.5349 57.5099 15.4787 57.5002 15.4241L56.5842 10.0861L60.4642 6.30413C60.5442 6.22413 60.5742 6.10813 60.5392 6.00113Z" fill="#EF9546"/>
<path d="M82.5392 6.00113C82.5221 5.94841 82.4905 5.90155 82.4481 5.86585C82.4057 5.83016 82.3541 5.80704 82.2992 5.79913L76.9392 5.02013L74.5422 0.164125C74.5177 0.114826 74.4799 0.0733484 74.4331 0.0443544C74.3863 0.0153604 74.3323 0 74.2772 0C74.2222 0 74.1682 0.0153604 74.1214 0.0443544C74.0746 0.0733484 74.0368 0.114826 74.0122 0.164125L71.6132 5.02113L66.2532 5.80013C66.1987 5.80825 66.1475 5.83141 66.1053 5.867C66.0632 5.9026 66.0318 5.94922 66.0147 6.00164C65.9976 6.05407 65.9954 6.11023 66.0084 6.16383C66.0213 6.21743 66.049 6.26636 66.0882 6.30513L69.9682 10.0851L69.0512 15.4251C69.0422 15.4795 69.0486 15.5354 69.0695 15.5864C69.0904 15.6374 69.1252 15.6816 69.1698 15.714C69.2145 15.7464 69.2672 15.7657 69.3222 15.7698C69.3772 15.7739 69.4323 15.7626 69.4812 15.7371L74.2762 13.2171L79.0702 15.7371C79.1192 15.7631 79.1745 15.7747 79.2298 15.7708C79.2851 15.7668 79.3381 15.7475 79.3829 15.7148C79.4277 15.6822 79.4625 15.6377 79.4832 15.5863C79.504 15.5349 79.5099 15.4787 79.5002 15.4241L78.5842 10.0861L82.4642 6.30413C82.5442 6.22413 82.5742 6.10813 82.5392 6.00113Z" fill="#EF9546"/>
<path d="M104.539 6.00113C104.522 5.94841 104.49 5.90155 104.448 5.86585C104.406 5.83016 104.354 5.80704 104.299 5.79913L98.9392 5.02013L96.5422 0.164125C96.5177 0.114826 96.4799 0.0733484 96.4331 0.0443544C96.3863 0.0153604 96.3323 0 96.2772 0C96.2222 0 96.1682 0.0153604 96.1214 0.0443544C96.0746 0.0733484 96.0368 0.114826 96.0122 0.164125L93.6132 5.02113L88.2532 5.80013C88.1987 5.80825 88.1475 5.83141 88.1053 5.867C88.0632 5.9026 88.0318 5.94922 88.0147 6.00164C87.9976 6.05407 87.9954 6.11023 88.0084 6.16383C88.0213 6.21743 88.049 6.26636 88.0882 6.30513L91.9682 10.0851L91.0512 15.4251C91.0422 15.4795 91.0486 15.5354 91.0695 15.5864C91.0904 15.6374 91.1252 15.6816 91.1698 15.714C91.2145 15.7464 91.2672 15.7657 91.3222 15.7698C91.3772 15.7739 91.4323 15.7626 91.4812 15.7371L96.2762 13.2171L101.07 15.7371C101.119 15.7631 101.174 15.7747 101.23 15.7708C101.285 15.7668 101.338 15.7475 101.383 15.7148C101.428 15.6822 101.462 15.6377 101.483 15.5863C101.504 15.5349 101.51 15.4787 101.5 15.4241L100.584 10.0861L104.464 6.30413C104.544 6.22413 104.574 6.10813 104.539 6.00113Z" fill="#EF9546"/>
</svg>
